<svg xmlns="http://www.w3.org/2000/svg" xmlns:xlink="http://www.w3.org/1999/xlink" width="100" height="100"><defs><linearGradient id="b" x1="17.068%" x2="82.927%" y1="-8.602%" y2="108.597%"><stop offset="0%" stop-color="#9EB5D7"/><stop offset="41%" stop-color="#C6D1E4"/><stop offset="79%" stop-color="#E4E6EE"/><stop offset="100%" stop-color="#F0EEF2"/></linearGradient><path id="a" d="M.08 50.026C.08 22.496 22.438.18 50.017.18c27.58 0 49.937 22.318 49.937 49.847 0 27.53-22.358 49.847-49.937 49.847C22.437 99.873.08 77.556.08 50.026z"/></defs><g fill="none" fill-rule="evenodd"><mask id="c" fill="#fff"><use xlink:href="#a"/></mask><path fill="url(#b)" fill-rule="nonzero" d="M-3.61 105.405h107.4V-4.865H-3.61z" mask="url(#c)"/><path fill="#F59080" d="M34.583 56.308c-3.476-9.803 5.582-18.844 15.402-15.375a11.168 11.168 0 016.799 6.786c3.475 9.803-5.583 18.844-15.403 15.375a11.167 11.167 0 01-6.798-6.786M48.696 67.73c7.399-1.404 12.996-7.886 13.015-15.676.022-8.743-7.042-15.916-15.8-16.038-8.956-.125-16.256 7.086-16.256 15.997 0 7.809 5.604 14.31 13.016 15.717a.91.91 0 01.741.893v9.638a.91.91 0 01-.91.908h-8.436a.226.226 0 00-.226.226v4.082c0 .125.101.226.226.226h8.436a.91.91 0 01.91.908v4.509c0 .124.101.225.226.225h4.09c.125 0 .226-.1.226-.225v-4.51a.91.91 0 01.91-.908h8.526a.226.226 0 00.225-.226v-4.082a.225.225 0 00-.225-.226h-8.526a.91.91 0 01-.91-.908v-9.638a.91.91 0 01.742-.893"/><path stroke="#F59080" stroke-width="2.585" d="M34.583 56.308c-3.476-9.803 5.582-18.844 15.402-15.375a11.168 11.168 0 016.799 6.786c3.475 9.803-5.583 18.844-15.403 15.375a11.167 11.167 0 01-6.798-6.786zM48.696 67.73c7.399-1.404 12.996-7.886 13.015-15.676.022-8.743-7.042-15.916-15.8-16.038-8.956-.125-16.256 7.086-16.256 15.997 0 7.809 5.604 14.31 13.016 15.717a.91.91 0 01.741.893v9.638a.91.91 0 01-.91.908h-8.436a.226.226 0 00-.226.226v4.082c0 .125.101.226.226.226h8.436a.91.91 0 01.91.908v4.509c0 .124.101.225.226.225h4.09c.125 0 .226-.1.226-.225v-4.51a.91.91 0 01.91-.908h8.526a.226.226 0 00.225-.226v-4.082a.225.225 0 00-.225-.226h-8.526a.91.91 0 01-.91-.908v-9.638a.91.91 0 01.742-.893z"/><g><path fill="#A183BC" d="M55.52 50.488c-5.984 2.655-12.992-.036-15.651-6.01-2.66-5.975.036-12.97 6.02-15.624 5.986-2.655 12.993.036 15.653 6.01s-.036 12.969-6.021 15.624zm28.22-28.136l-11.374-5.045a.66.66 0 00-.871.335l-1.308 2.937a.659.659 0 00.335.87L77 24.324a.659.659 0 010 1.205L64.8 30.94a.661.661 0 01-.816-.235c-4.266-6.31-12.575-8.852-19.786-5.654-8.09 3.588-11.733 13.043-8.139 21.118 3.595 8.075 13.067 11.712 21.156 8.123 7.211-3.198 10.89-11.058 9.057-18.447a.66.66 0 01.372-.762l11.888-5.274a.66.66 0 01.885.84l-2.38 6.174a.659.659 0 00.38.852l3.005 1.155c.34.13.723-.04.854-.379l5.484-14.232a.659.659 0 00-.38-.852l-2.639-1.014z"/><path stroke="#A183BC" stroke-width="2.585" d="M55.52 50.488c-5.984 2.655-12.992-.036-15.651-6.01-2.66-5.975.036-12.97 6.02-15.624 5.986-2.655 12.993.036 15.653 6.01s-.036 12.969-6.021 15.624zm28.22-28.136l-11.374-5.045a.66.66 0 00-.871.335l-1.308 2.938a.659.659 0 00.335.87L77 24.323a.659.659 0 010 1.205l-12.2 5.411a.661.661 0 01-.816-.235c-4.266-6.31-12.575-8.852-19.786-5.654-8.09 3.588-11.733 13.043-8.139 21.118 3.595 8.075 13.067 11.712 21.156 8.123 7.211-3.198 10.89-11.058 9.057-18.447a.66.66 0 01.372-.762l11.888-5.274a.66.66 0 01.885.84l-2.38 6.174a.659.659 0 00.38.852l3.005 1.155c.34.13.723-.04.854-.379l5.484-14.232a.659.659 0 00-.38-.852l-2.639-1.014z"/></g></g></svg>