<svg xmlns="http://www.w3.org/2000/svg" xmlns:xlink="http://www.w3.org/1999/xlink" width="100" height="100">
  <defs>
    <path id="d" d="M.057.085h6.786v9.538H.057z" />
    <path id="f" d="M.061.052h6.834v8.933H.06z" />
    <path id="h" d="M0 101.875V.125h99.167v101.75" />
    <path id="j" d="M.028.088h7.635v13.797H.028z" />
    <path id="l" d="M.032.03h9.824v15.836H.032z" />
    <path id="n" d="M0 101.875V.125h99.167v101.75" />
    <path id="p" d="M.13.002H17.3v9.173H.13z" />
    <linearGradient id="b" x1="15.29%" x2="84.716%" y1="-8.601%" y2="108.601%">
      <stop offset="0%" stop-color="#9EB5D7" />
      <stop offset="49%" stop-color="#C8D2E5" />
      <stop offset="100%" stop-color="#F0EEF2" />
    </linearGradient>
    <circle id="a" cx="50" cy="50" r="50" />
  </defs>
  <g fill="none" fill-rule="evenodd">
    <mask id="c" fill="#fff">
      <use xlink:href="#a" />
    </mask>
    <use fill="url(#b)" fill-rule="nonzero" xlink:href="#a" />
    <path fill="#A183BC" d="M27.557 63.259s2.55-8.72 8.44-15.338c0 0 23.846-.714 25.035-.391 0 0 8.822 9.114 10.363 15.97 0 0 4.175-2.197 6.708 2.145 2.532 4.34 1.222 8.77-2.266 13.886-3.49 5.117-5.408 5.757-9.362 4.943-3.954-.815-4.594-3.547-8.082-2.908-3.49.64-12.735 1.105-14.944-.29 0 0-1.338-.989-3.49 1.104-2.15 2.094-5.058 3.09-7.907 2.388-2.85-.702-10.176-4.656-11.397-13.494-1.22-8.838 2.989-7.832 6.902-8.015" mask="url(#c)" />
    <g mask="url(#c)">
      <g transform="translate(27.5 60.833)">
        <mask id="e" fill="#fff">
          <use xlink:href="#d" />
        </mask>
        <path fill="#A183BC" fill-opacity=".57" d="M6.403 9.51C5.302 7.706 2.247 2.995.057 2.425c0 0 .602-1.79.804-2.31.19-.487 5.74 4.894 5.981 9.26.014.245-.31.344-.439.135" mask="url(#e)" />
      </g>
    </g>
    <g mask="url(#c)">
      <g transform="translate(.333 -1)">
        <g transform="translate(64.167 62.667)">
          <mask id="g" fill="#fff">
            <use xlink:href="#f" />
          </mask>
          <path fill="#A183BC" fill-opacity=".57" d="M6.356.052S1.114 2.672.065 8.749c-.039.223.263.33.372.132C1.51 6.923 4.133 2.633 6.895 1.833L6.356.052z" mask="url(#g)" />
        </g>
        <mask id="i" fill="#fff">
          <use xlink:href="#h" />
        </mask>
        <path fill="#F59080" d="M39.557 51.087s-3.306-.264-3.262 1.896c.044 2.16 2.549 1.89 2.579 2.954.03 1.065-2.755 1.058-2.226 2.954.529 1.896 3.042 1.069 2.91 2.342-.133 1.273-3.13 3.566-1.059 4.491 2.07.925 3.527-.866 3.573.18.037.858.04 1.722.055 2.587.011.636.094 1.307.48 1.813.915 1.197 2.3.094 3.148-.587.773-.622 1.072-.848 2.14-.814 2.186.07.877 3.082 2.993 2.64 2.116-.44 1.35-2.902 2.285-3.341.936-.44 3.27 2.324 4.416.805 1.146-1.52-1.253-2.42-.463-3.74.79-1.32 2.976.457 3.285-1.747.308-2.204-1.173-1.325-1.27-3.594-.097-2.27 3.518-2.226 2.46-4.077-1.058-1.852-1.938.258-2.49-1.194-.552-1.451 2.19-2.48 1.344-4.097-.846-1.616-2.257-.107-2.462-.73 0 0-6.929 4.654-18.436 1.26" mask="url(#i)" />
        <path fill="#FCBB7F" d="M27.68 33.491c.842.164 1.643.36 1.732-.492.516-4.892 3.3-18.124 18.352-17.765 18.454.44 18.089 18.036 19.117 18.541 1.065.524 3.813-3.29 4.817 1.406 1.076 5.035-2.404 7.821-5.92 8.26 0 0-3.822 6.028-11.112 7.922-7.29 1.893-15.283 1.03-20.146-3.37 0 0-1.776-2.2-2.123-3.551 0 0-5.173 1.533-7.156-4.877-1.294-4.183 1.079-6.338 2.44-6.074" mask="url(#i)" />
      </g>
    </g>
    <g mask="url(#c)">
      <g transform="translate(28.333 47.833)">
        <mask id="k" fill="#fff">
          <use xlink:href="#j" />
        </mask>
        <path fill="#A183BC" fill-opacity=".57" d="M1.16 13.885S4.396 3.625 7.663.088c0 0-4.956 5.384-7.635 13.028l1.132.769z" mask="url(#k)" />
      </g>
    </g>
    <g mask="url(#c)">
      <g transform="translate(61 47.5)">
        <mask id="m" fill="#fff">
          <use xlink:href="#l" />
        </mask>
        <path fill="#A183BC" fill-opacity=".57" d="M.032.03S7.49 8.367 9.856 14.218l-2.302 1.648S6.77 9.512.032.03" mask="url(#m)" />
      </g>
    </g>
    <g mask="url(#c)">
      <g transform="translate(.333 -1)">
        <path stroke="#F59080" stroke-width="1.25" d="M41.023 51.6s-3.499-.199-2.849 1.651c.65 1.85 2.5.787 2.15 2.569-.35 1.782-3.532 1.632-2.65 3.082.883 1.45 2.55.15 2.75 1.35.2 1.2-2.6 4-1.3 4.35 1.3.35 3.1-.75 3.5.3.4 1.05-.3 4.7 1.101 4.7 1.4 0 2.25-2.3 4.35-1.75 2.1.55 1.8 3.25 2.75 2.9.95-.35.75-2.65 2.2-3.2 1.45-.55 3.15 1.75 3.701 1.05.55-.7-1.2-2.6-.65-3.65.55-1.05 2.2-.65 2.85-.9.65-.25 1.268-.717.384-2.134-.49-.784-1.01-1.715-1.03-2.665-.018-.855.932-1.447 1.62-1.809.123-.065.252-.126.355-.22.102-.096.177-.233.16-.371-.029-.23-.287-.358-.518-.384-.305-.033-.61-.018-.903-.132-.666-.26-.785-1.23-.825-1.845-.054-.828.346-1.557.857-2.183 1.429-1.75-1.033-2.177-1.033-2.177" />
        <mask id="o" fill="#fff">
          <use xlink:href="#n" />
        </mask>
        <path fill="#333" d="M57.195 33.768c0 1.402-.704 2.538-1.573 2.538s-1.573-1.136-1.573-2.538.704-2.54 1.573-2.54 1.573 1.138 1.573 2.54m-15.963 0c0 1.402-.704 2.538-1.572 2.538-.869 0-1.573-1.136-1.573-2.538s.704-2.54 1.573-2.54c.868 0 1.572 1.138 1.572 2.54" mask="url(#o)" />
      </g>
    </g>
    <g mask="url(#c)">
      <g transform="translate(40 39.333)">
        <mask id="q" fill="#fff">
          <use xlink:href="#p" />
        </mask>
        <path fill="#F59080" fill-opacity=".6" d="M1.072.576C3.604.194 9.126-.381 16.31.363c.795.082 1.243.96.842 1.651C14.852 5.99 7.784 15.812.27 2.21A1.107 1.107 0 011.072.576" mask="url(#q)" />
      </g>
    </g>
  </g>
</svg>